<svg width="767" height="139" viewBox="0 0 767 139" fill="none" xmlns="http://www.w3.org/2000/svg">
<path d="M73.656 32.292C75.456 32.292 77.004 32.94 78.3 34.236C79.668 35.46 80.352 37.008 80.352 38.88V101.412C80.352 103.284 79.74 104.868 78.516 106.164C77.292 107.388 75.672 108 73.656 108C71.64 108 69.984 107.388 68.688 106.164C67.464 104.94 66.852 103.356 66.852 101.412V57.888L49.032 85.104C48.312 85.968 47.484 86.688 46.548 87.264C45.612 87.768 44.64 87.984 43.632 87.912C42.696 87.984 41.76 87.768 40.824 87.264C39.888 86.688 39.06 85.968 38.34 85.104L20.52 56.916V101.412C20.52 103.356 19.944 104.94 18.792 106.164C17.64 107.388 16.128 108 14.256 108C12.456 108 10.98 107.388 9.828 106.164C8.676 104.868 8.1 103.284 8.1 101.412V38.88C8.1 37.08 8.748 35.532 10.044 34.236C11.412 32.94 13.032 32.292 14.904 32.292C15.984 32.292 17.064 32.58 18.144 33.156C19.224 33.66 20.052 34.344 20.628 35.208L44.172 71.388L68.364 35.208C68.94 34.344 69.696 33.66 70.632 33.156C71.64 32.58 72.648 32.292 73.656 32.292ZM138.384 50.22C140.256 50.22 141.804 50.868 143.028 52.164C144.252 53.388 144.864 54.936 144.864 56.808V84.24C144.864 92.016 142.704 98.1 138.384 102.492C134.136 106.884 128.052 109.08 120.132 109.08C112.212 109.08 106.128 106.884 101.88 102.492C97.6323 98.1 95.5083 92.016 95.5083 84.24V56.808C95.5083 54.936 96.1203 53.388 97.3443 52.164C98.5683 50.868 100.116 50.22 101.988 50.22C103.86 50.22 105.408 50.868 106.632 52.164C107.856 53.388 108.468 54.936 108.468 56.808V84.24C108.468 88.632 109.44 91.908 111.384 94.068C113.328 96.156 116.244 97.2 120.132 97.2C124.092 97.2 127.044 96.156 128.988 94.068C130.932 91.908 131.904 88.632 131.904 84.24V56.808C131.904 54.936 132.516 53.388 133.74 52.164C134.964 50.868 136.512 50.22 138.384 50.22ZM155.547 99.036C154.899 98.172 154.575 97.092 154.575 95.796C154.575 93.924 155.511 92.34 157.383 91.044C158.391 90.396 159.435 90.072 160.515 90.072C162.027 90.072 163.467 90.756 164.835 92.124C166.995 94.356 169.227 96.012 171.531 97.092C173.907 98.172 176.751 98.712 180.063 98.712C185.679 98.496 188.487 96.372 188.487 92.34C188.487 90.252 187.515 88.668 185.571 87.588C183.699 86.508 180.747 85.428 176.715 84.348C172.539 83.196 169.119 82.044 166.455 80.892C163.863 79.74 161.595 78.012 159.651 75.708C157.779 73.332 156.843 70.164 156.843 66.204C156.843 62.748 157.815 59.76 159.759 57.24C161.775 54.648 164.367 52.668 167.535 51.3C170.775 49.86 174.195 49.14 177.795 49.14C181.467 49.14 185.139 49.824 188.811 51.192C192.483 52.56 195.363 54.576 197.451 57.24C198.387 58.392 198.855 59.688 198.855 61.128C198.855 62.784 198.171 64.152 196.803 65.232C195.795 66.024 194.643 66.42 193.347 66.42C191.763 66.42 190.467 65.916 189.459 64.908C188.163 63.324 186.471 62.064 184.383 61.128C182.367 60.192 180.063 59.724 177.471 59.724C171.999 59.724 169.263 61.704 169.263 65.664C169.263 67.248 169.767 68.544 170.775 69.552C171.783 70.488 173.043 71.244 174.555 71.82C176.139 72.324 178.335 72.972 181.143 73.764C185.031 74.844 188.271 75.96 190.863 77.112C193.455 78.264 195.651 80.028 197.451 82.404C199.251 84.78 200.151 87.912 200.151 91.8C200.151 95.328 199.107 98.424 197.019 101.088C194.931 103.68 192.231 105.66 188.919 107.028C185.679 108.396 182.331 109.08 178.875 109.08C174.123 109.08 169.695 108.288 165.591 106.704C161.487 105.12 158.139 102.564 155.547 99.036ZM223.201 101.412C223.201 103.284 222.589 104.868 221.365 106.164C220.141 107.388 218.593 108 216.721 108C214.849 108 213.301 107.388 212.077 106.164C210.853 104.868 210.241 103.284 210.241 101.412V56.808C210.241 54.936 210.853 53.388 212.077 52.164C213.301 50.868 214.849 50.22 216.721 50.22C218.593 50.22 220.141 50.868 221.365 52.164C222.589 53.388 223.201 54.936 223.201 56.808V101.412ZM216.613 43.2C214.165 43.2 212.437 42.804 211.429 42.012C210.421 41.22 209.917 39.816 209.917 37.8V35.748C209.917 33.732 210.457 32.328 211.537 31.536C212.617 30.744 214.345 30.348 216.721 30.348C219.241 30.348 221.005 30.744 222.013 31.536C223.021 32.328 223.525 33.732 223.525 35.748V37.8C223.525 39.888 222.985 41.328 221.905 42.12C220.897 42.84 219.133 43.2 216.613 43.2ZM261.684 49.14C267.804 49.14 272.736 50.112 276.48 52.056C280.224 53.928 282.096 56.448 282.096 59.616C282.096 61.2 281.628 62.604 280.692 63.828C279.756 64.98 278.532 65.556 277.02 65.556C275.868 65.556 274.932 65.412 274.212 65.124C273.492 64.764 272.772 64.332 272.052 63.828C271.404 63.252 270.756 62.784 270.108 62.424C269.388 62.064 268.308 61.74 266.868 61.452C265.5 61.164 264.384 61.02 263.52 61.02C258.12 61.02 253.872 62.712 250.776 66.096C247.752 69.408 246.24 73.764 246.24 79.164C246.24 84.348 247.788 88.668 250.884 92.124C253.98 95.508 257.94 97.2 262.764 97.2C266.292 97.2 268.92 96.768 270.648 95.904C271.08 95.688 271.656 95.328 272.376 94.824C273.168 94.248 273.888 93.816 274.536 93.528C275.184 93.24 275.976 93.096 276.912 93.096C278.712 93.096 280.116 93.672 281.124 94.824C282.204 95.976 282.744 97.452 282.744 99.252C282.744 100.98 281.736 102.6 279.72 104.112C277.704 105.624 275.04 106.848 271.728 107.784C268.416 108.648 264.888 109.08 261.144 109.08C255.6 109.08 250.704 107.784 246.456 105.192C242.28 102.6 239.04 99.036 236.736 94.5C234.432 89.892 233.28 84.78 233.28 79.164C233.28 73.332 234.468 68.148 236.844 63.612C239.292 59.076 242.676 55.548 246.996 53.028C251.316 50.436 256.212 49.14 261.684 49.14Z" fill="#F3F4F6"/>
<path d="M472.34 102.168C473.42 102.888 473.96 103.788 473.96 104.868C473.96 105.228 473.816 105.696 473.528 106.272C473.24 106.776 472.844 107.172 472.34 107.46C471.836 107.748 471.296 107.892 470.72 107.892C470 107.892 469.388 107.748 468.884 107.46C466.868 106.308 465.248 104.436 464.024 101.844C462.8 99.252 462.188 95.112 462.188 89.424C462.188 84.384 460.784 80.856 457.976 78.84C455.168 76.752 451.82 75.708 447.932 75.708H423.956V104.76C423.956 105.696 423.668 106.488 423.092 107.136C422.516 107.712 421.76 108 420.824 108C419.816 108 418.952 107.712 418.232 107.136C417.512 106.488 417.152 105.696 417.152 104.76V35.64C417.152 34.704 417.44 33.948 418.016 33.372C418.664 32.724 419.456 32.4 420.392 32.4H449.552C453.656 32.4 457.328 33.3 460.568 35.1C463.808 36.828 466.328 39.24 468.128 42.336C470 45.432 470.936 48.924 470.936 52.812C470.936 57.42 469.712 61.488 467.264 65.016C464.888 68.472 461.756 70.848 457.868 72.144C461.036 73.368 463.628 75.456 465.644 78.408C467.66 81.288 468.704 84.816 468.776 88.992C468.848 93.456 469.136 96.588 469.64 98.388C470.216 100.188 471.116 101.448 472.34 102.168ZM449.876 69.768C452.396 69.552 454.736 68.724 456.896 67.284C459.056 65.844 460.784 63.9 462.08 61.452C463.376 59.004 464.024 56.196 464.024 53.028C464.024 48.924 462.62 45.54 459.812 42.876C457.076 40.14 453.476 38.772 449.012 38.772H423.956V69.768H449.876ZM533.125 52.812C534.061 52.812 534.817 53.136 535.393 53.784C536.041 54.432 536.365 55.224 536.365 56.16V104.76C536.365 105.696 536.041 106.488 535.393 107.136C534.817 107.712 534.061 108 533.125 108C532.189 108 531.397 107.712 530.749 107.136C530.173 106.488 529.885 105.696 529.885 104.76V97.524C528.085 100.764 525.385 103.5 521.785 105.732C518.185 107.964 514.261 109.08 510.013 109.08C505.189 109.08 500.833 107.82 496.945 105.3C493.129 102.78 490.105 99.324 487.873 94.932C485.713 90.54 484.633 85.608 484.633 80.136C484.633 74.664 485.749 69.768 487.981 65.448C490.213 61.056 493.237 57.636 497.053 55.188C500.941 52.74 505.225 51.516 509.905 51.516C514.225 51.516 518.185 52.56 521.785 54.648C525.385 56.736 528.085 59.472 529.885 62.856V56.16C529.885 55.224 530.173 54.432 530.749 53.784C531.397 53.136 532.189 52.812 533.125 52.812ZM510.661 103.032C514.405 103.032 517.753 102.06 520.705 100.116C523.729 98.1 526.069 95.364 527.725 91.908C529.453 88.38 530.317 84.456 530.317 80.136C530.317 75.96 529.453 72.144 527.725 68.688C526.069 65.232 523.729 62.532 520.705 60.588C517.753 58.572 514.405 57.564 510.661 57.564C506.917 57.564 503.533 58.536 500.509 60.48C497.557 62.424 495.217 65.124 493.489 68.58C491.833 71.964 491.005 75.816 491.005 80.136C491.005 84.456 491.833 88.38 493.489 91.908C495.145 95.364 497.449 98.1 500.401 100.116C503.425 102.06 506.845 103.032 510.661 103.032ZM579.302 51.516C585.998 51.516 590.894 53.496 593.99 57.456C597.158 61.344 598.742 66.528 598.742 73.008V104.76C598.742 105.696 598.418 106.488 597.77 107.136C597.122 107.712 596.366 108 595.502 108C594.566 108 593.774 107.712 593.126 107.136C592.55 106.488 592.262 105.696 592.262 104.76V73.332C592.262 68.652 591.074 64.872 588.698 61.992C586.394 59.04 582.794 57.564 577.898 57.564C574.802 57.564 571.85 58.284 569.042 59.724C566.306 61.164 564.074 63.108 562.346 65.556C560.618 67.932 559.754 70.524 559.754 73.332V104.76C559.754 105.696 559.43 106.488 558.782 107.136C558.206 107.712 557.45 108 556.514 108C555.578 108 554.786 107.712 554.138 107.136C553.562 106.488 553.274 105.696 553.274 104.76V56.376C553.274 55.44 553.562 54.684 554.138 54.108C554.786 53.46 555.578 53.136 556.514 53.136C557.45 53.136 558.206 53.46 558.782 54.108C559.43 54.684 559.754 55.44 559.754 56.376V62.316C561.698 59.22 564.47 56.664 568.07 54.648C571.742 52.56 575.486 51.516 579.302 51.516ZM659.452 102.276C660.1 102.996 660.424 103.824 660.424 104.76C660.424 105.696 660.028 106.488 659.236 107.136C658.516 107.712 657.832 108 657.184 108C656.248 108 655.456 107.604 654.808 106.812L630.94 81.54L622.84 88.452V104.76C622.84 105.696 622.516 106.488 621.868 107.136C621.292 107.712 620.536 108 619.6 108C618.664 108 617.872 107.712 617.224 107.136C616.648 106.488 616.36 105.696 616.36 104.76V31.32C616.36 30.384 616.648 29.628 617.224 29.052C617.872 28.404 618.664 28.08 619.6 28.08C620.536 28.08 621.292 28.404 621.868 29.052C622.516 29.628 622.84 30.384 622.84 31.32V80.568L654.052 53.676C654.7 52.956 655.456 52.596 656.32 52.596C657.112 52.596 657.832 52.956 658.48 53.676C659.128 54.324 659.452 55.044 659.452 55.836C659.452 56.7 659.056 57.528 658.264 58.32L636.016 77.22L659.452 102.276ZM717.739 77.22C717.739 78.084 717.415 78.84 716.767 79.488C716.119 80.064 715.363 80.352 714.499 80.352H673.675C673.675 84.672 674.539 88.56 676.267 92.016C678.067 95.4 680.587 98.1 683.827 100.116C687.139 102.06 691.027 103.032 695.491 103.032C698.947 103.032 702.043 102.312 704.779 100.872C707.515 99.432 709.711 97.596 711.367 95.364C712.159 94.716 712.915 94.392 713.635 94.392C714.355 94.392 715.003 94.68 715.579 95.256C716.155 95.832 716.443 96.48 716.443 97.2C716.443 97.992 716.083 98.748 715.363 99.468C713.059 102.276 710.143 104.58 706.615 106.38C703.159 108.18 699.487 109.08 695.599 109.08C690.055 109.08 685.159 107.892 680.911 105.516C676.663 103.14 673.351 99.828 670.975 95.58C668.599 91.26 667.411 86.292 667.411 80.676C667.411 74.772 668.563 69.624 670.867 65.232C673.243 60.768 676.375 57.384 680.263 55.08C684.151 52.704 688.291 51.516 692.683 51.516C697.003 51.516 701.035 52.524 704.779 54.54C708.595 56.556 711.691 59.508 714.067 63.396C716.443 67.284 717.667 71.892 717.739 77.22ZM692.683 57.78C688.507 57.78 684.619 59.22 681.019 62.1C677.491 64.98 675.223 69.12 674.215 74.52H711.043V73.656C710.683 70.416 709.603 67.608 707.803 65.232C706.003 62.784 703.735 60.948 700.999 59.724C698.335 58.428 695.563 57.78 692.683 57.78ZM756.907 51.516C758.347 51.516 759.643 51.804 760.795 52.38C761.947 52.956 762.523 53.82 762.523 54.972C762.523 55.98 762.235 56.808 761.659 57.456C761.083 58.032 760.399 58.32 759.607 58.32C759.247 58.32 758.527 58.14 757.447 57.78C756.439 57.42 755.467 57.24 754.531 57.24C751.867 57.24 749.203 58.284 746.539 60.372C743.947 62.388 741.787 65.016 740.059 68.256C738.403 71.496 737.575 74.772 737.575 78.084V104.76C737.575 105.696 737.251 106.488 736.603 107.136C736.027 107.712 735.271 108 734.335 108C733.399 108 732.607 107.712 731.959 107.136C731.383 106.488 731.095 105.696 731.095 104.76V56.376C731.095 55.44 731.383 54.684 731.959 54.108C732.607 53.46 733.399 53.136 734.335 53.136C735.271 53.136 736.027 53.46 736.603 54.108C737.251 54.684 737.575 55.44 737.575 56.376V65.88C739.231 61.776 741.715 58.392 745.027 55.728C748.411 52.992 752.371 51.588 756.907 51.516Z" fill="#F3F4F6"/>
<path fill-rule="evenodd" clip-rule="evenodd" d="M347.835 117.397C359.012 117.397 369.731 112.93 377.634 104.979C385.537 97.0272 389.977 86.2426 389.977 74.9974C389.977 63.7522 385.537 52.9676 377.634 45.0161C369.731 37.0645 359.012 32.5974 347.835 32.5974C336.659 32.5974 325.94 37.0645 318.037 45.0161C310.134 52.9676 305.694 63.7522 305.694 74.9974C305.694 86.2426 310.134 97.0272 318.037 104.979C325.94 112.93 336.659 117.397 347.835 117.397V117.397ZM367.363 71.2503L351.56 55.3503C350.572 54.3567 349.232 53.7985 347.835 53.7985C346.439 53.7985 345.099 54.3567 344.111 55.3503L328.308 71.2503C327.348 72.2499 326.817 73.5887 326.829 74.9783C326.841 76.368 327.395 77.6973 328.372 78.6799C329.349 79.6626 330.67 80.22 332.051 80.2321C333.432 80.2442 334.763 79.7099 335.756 78.7445L342.568 71.8916V90.8974C342.568 92.3031 343.123 93.6511 344.111 94.6451C345.098 95.639 346.438 96.1974 347.835 96.1974C349.232 96.1974 350.572 95.639 351.56 94.6451C352.548 93.6511 353.103 92.3031 353.103 90.8974V71.8916L359.914 78.7445C360.908 79.7099 362.238 80.2442 363.62 80.2321C365.001 80.22 366.322 79.6626 367.299 78.6799C368.275 77.6973 368.829 76.368 368.841 74.9783C368.853 73.5887 368.322 72.2499 367.363 71.2503V71.2503Z" fill="#651FFF"/>
</svg>
